<?xml version="1.0" standalone="no"?>
<!DOCTYPE svg PUBLIC "-//W3C//DTD SVG 20010904//EN"
 "http://www.w3.org/TR/2001/REC-SVG-20010904/DTD/svg10.dtd">
<svg version="1.0" xmlns="http://www.w3.org/2000/svg"
 width="428.000000pt" height="78.000000pt" viewBox="0 0 428.000000 78.000000"
 preserveAspectRatio="xMidYMid meet">

<g transform="translate(0.000000,78.000000) scale(0.100000,-0.100000)"
fill="#000000" stroke="none">
<path d="M760 390 c0 -331 2 -380 15 -380 13 0 15 49 15 380 0 331 -2 380 -15
380 -13 0 -15 -49 -15 -380z"/>
<path d="M200 620 c-112 -57 -147 -79 -127 -79 22 -1 27 -6 27 -26 0 -16 6
-25 15 -25 13 0 15 -23 15 -145 0 -122 -2 -145 -15 -145 -10 0 -15 -10 -15
-30 0 -25 -4 -30 -25 -30 -21 0 -25 -5 -25 -30 l0 -30 305 0 305 0 0 30 c0 25
-4 30 -25 30 -21 0 -25 5 -25 30 0 20 -5 30 -15 30 -13 0 -15 23 -15 145 0
122 2 145 15 145 8 0 15 9 15 20 0 11 5 21 10 21 6 1 14 2 19 3 32 4 6 22
-125 88 -82 40 -151 74 -154 75 -3 1 -75 -34 -160 -77z m293 -2 l122 -63 -127
-3 c-70 -1 -186 -1 -259 0 l-132 3 124 62 c68 34 130 63 137 63 7 0 67 -28
135 -62z m-283 -98 c0 -17 -7 -20 -44 -20 -25 0 -48 5 -51 10 -12 19 6 30 51
30 37 0 44 -3 44 -20z m80 -7 c0 -14 6 -23 15 -23 13 0 15 -23 15 -145 0 -122
-2 -145 -15 -145 -10 0 -15 -10 -15 -30 0 -27 -3 -30 -30 -30 -25 0 -30 4 -30
25 0 14 -8 29 -20 35 -18 10 -20 21 -20 143 0 120 2 134 20 150 11 9 20 23 20
30 0 8 12 13 30 13 25 0 30 -4 30 -23z m115 7 c0 -11 -13 -16 -47 -18 -41 -3
-48 0 -48 15 0 15 8 18 48 18 35 0 47 -4 47 -15z m83 -8 c2 -12 10 -22 18 -22
21 0 21 -278 -1 -286 -9 -4 -15 -19 -15 -35 0 -26 -3 -29 -35 -29 -32 0 -35 2
-35 30 0 20 -5 30 -15 30 -13 0 -15 23 -15 145 0 122 2 145 15 145 8 0 15 9
15 19 0 36 63 39 68 3z m107 8 c0 -11 -13 -16 -47 -18 -36 -2 -48 0 -48 11 0
23 12 28 55 25 28 -2 40 -8 40 -18z m-415 -175 c0 -122 -2 -145 -15 -145 -13
0 -15 23 -15 145 0 122 2 145 15 145 13 0 15 -23 15 -145z m190 0 c0 -122 -2
-145 -15 -145 -13 0 -15 23 -15 145 0 122 2 145 15 145 13 0 15 -23 15 -145z
m195 0 c0 -118 -2 -140 -15 -140 -13 0 -15 24 -18 143 -2 133 -1 143 15 140
16 -3 18 -17 18 -143z m-355 -180 c0 -23 -3 -25 -50 -25 -47 0 -50 2 -50 25 0
23 3 25 50 25 47 0 50 -2 50 -25z m190 -1 c0 -24 -2 -25 -47 -22 -42 3 -48 6
-49 26 -1 20 3 22 47 22 46 0 49 -2 49 -26z m200 1 c0 -23 -3 -25 -50 -25 -47
0 -50 2 -50 25 0 23 3 25 50 25 47 0 50 -2 50 -25z m48 -58 c3 -16 -16 -17
-287 -17 -276 0 -312 3 -297 28 3 5 135 8 293 8 266 -1 288 -2 291 -19z"/>
<path d="M1348 548 c-38 -10 -48 -27 -48 -81 0 -24 -2 -26 -19 -17 -27 14 -57
13 -91 -5 -40 -20 -60 -63 -60 -125 0 -44 5 -56 29 -81 31 -31 59 -36 93 -18
15 8 22 8 27 0 9 -13 80 5 86 22 8 22 31 308 25 311 -3 2 -21 -1 -42 -6z m-61
-159 c12 -12 6 -87 -10 -106 -14 -18 -54 -16 -61 3 -9 23 -7 59 4 88 10 28 46
36 67 15z"/>
<path d="M2429 548 l-36 -9 -13 -160 c-7 -87 -11 -161 -9 -164 3 -2 22 1 42 7
27 8 37 17 37 32 1 49 17 48 54 -3 21 -28 41 -51 44 -51 4 1 22 9 40 18 l32
18 -45 44 c-25 24 -45 48 -45 53 0 5 21 34 47 64 l47 55 -50 -8 c-39 -5 -56
-14 -82 -43 -24 -26 -32 -31 -28 -16 10 44 17 175 9 174 -4 -1 -24 -5 -44 -11z"/>
<path d="M4155 541 l-30 -6 -12 -160 c-7 -87 -10 -161 -8 -164 3 -2 22 3 42
10 l38 15 12 119 c16 162 16 195 1 194 -7 -1 -26 -4 -43 -8z"/>
<path d="M994 533 c-65 -4 -71 -6 -87 -32 -21 -36 -21 -41 1 -41 15 0 17 -6
14 -37 -3 -21 -11 -48 -20 -60 -13 -21 -13 -23 1 -23 13 0 15 -8 10 -37 -3
-21 -10 -46 -15 -56 -5 -10 -8 -21 -5 -23 2 -3 43 -7 89 -11 l85 -6 22 32 22
31 -55 0 -56 0 0 35 c0 31 3 35 25 35 17 0 29 9 40 30 20 39 20 40 -21 40 -33
0 -35 2 -32 28 3 25 7 27 50 30 42 3 47 6 57 34 6 17 11 33 11 34 0 2 -15 3
-32 2 -18 -1 -65 -4 -104 -5z"/>
<path d="M1777 533 c-62 -4 -69 -6 -77 -29 -15 -39 -13 -44 25 -44 40 0 39 4
27 -162 -8 -95 -7 -96 45 -77 29 10 31 13 37 82 14 157 14 156 54 159 31 3 37
8 48 41 l13 37 -52 -2 c-29 -1 -83 -3 -120 -5z"/>
<path d="M2745 533 c-31 -8 -83 -51 -100 -83 -22 -42 -19 -128 5 -168 38 -62
116 -88 184 -62 21 8 26 16 26 43 l0 34 -39 -10 c-49 -13 -86 7 -96 53 -19 86
45 151 114 116 41 -22 41 -21 41 23 0 35 -3 40 -31 50 -33 11 -68 13 -104 4z"/>
<path d="M3498 513 c-9 -2 -20 -18 -23 -34 -4 -16 -18 -42 -32 -57 l-25 -27
25 -3 c25 -3 26 -4 20 -71 -5 -61 -3 -71 16 -90 23 -23 52 -26 100 -10 45 16
39 57 -9 55 -28 -1 -36 23 -25 80 5 27 11 34 29 34 21 0 36 16 36 40 0 5 -12
10 -27 12 -26 3 -28 6 -25 41 3 33 1 37 -20 36 -13 -1 -31 -3 -40 -6z"/>
<path d="M2113 462 c-18 -2 -33 -8 -33 -13 0 -6 -7 -6 -19 1 -34 17 -78 11
-110 -15 -55 -47 -58 -157 -6 -202 31 -27 62 -29 93 -7 19 13 23 13 28 0 4
-11 12 -12 33 -5 26 9 27 13 39 126 6 64 10 117 9 118 -1 0 -17 -1 -34 -3z
m-60 -64 c14 -11 16 -23 11 -66 -6 -45 -10 -53 -31 -59 -31 -7 -43 9 -43 57 0
34 22 80 39 80 4 0 15 -6 24 -12z"/>
<path d="M3199 458 l-36 -9 -10 -117 c-6 -64 -9 -119 -7 -121 2 -2 21 3 41 10
38 15 38 16 48 88 8 59 15 77 33 89 18 12 25 12 37 2 13 -11 14 -29 9 -103 -7
-83 -6 -90 10 -84 10 4 28 10 40 13 21 5 24 13 30 96 8 118 -4 142 -67 136
-23 -3 -50 -8 -59 -12 -13 -6 -18 -4 -18 8 0 18 0 18 -51 4z"/>
<path d="M4033 462 c-18 -2 -33 -8 -33 -13 0 -6 -7 -6 -19 1 -73 38 -151 -25
-151 -122 0 -84 57 -134 122 -107 24 10 31 10 38 0 6 -10 14 -9 39 3 17 9 29
21 26 26 -3 6 -1 55 6 111 6 55 10 101 8 102 -2 1 -19 1 -36 -1z m-58 -66 c16
-11 17 -20 9 -67 -9 -57 -30 -73 -59 -49 -20 16 -19 80 1 108 18 26 24 27 49
8z"/>
<path d="M1465 451 c-26 -5 -31 -11 -37 -51 -13 -89 -9 -156 10 -173 23 -21
54 -22 92 -2 25 13 30 13 30 1 0 -12 7 -12 43 -1 l42 12 10 112 11 111 -36 -6
c-19 -4 -38 -9 -42 -13 -4 -3 -10 -37 -14 -76 -8 -79 -16 -95 -51 -95 l-25 0
7 95 c4 53 4 94 -1 94 -5 -1 -22 -4 -39 -8z"/>
<path d="M2225 448 c-58 -32 -60 -77 -4 -131 33 -30 39 -41 28 -48 -18 -11
-26 -11 -50 1 -17 9 -19 7 -19 -19 0 -43 53 -56 109 -26 56 28 56 81 1 125
-22 17 -40 38 -40 46 0 16 45 20 55 4 3 -5 10 -10 16 -10 13 0 11 44 -3 58
-15 15 -66 15 -93 0z"/>
<path d="M2954 441 c-39 -23 -68 -91 -58 -135 15 -71 88 -110 165 -87 34 10
39 16 39 42 0 26 -2 29 -19 19 -22 -11 -61 -13 -85 -4 -23 9 -20 33 2 27 27
-7 88 21 106 50 13 18 14 31 7 50 -21 56 -97 74 -157 38z m80 -37 c27 -10 18
-33 -16 -42 -39 -10 -47 1 -22 29 20 22 17 21 38 13z"/>
<path d="M3685 451 l-30 -6 -10 -113 c-6 -63 -7 -116 -3 -118 4 -3 23 2 42 10
33 14 35 17 41 79 9 79 14 87 56 96 27 5 35 12 37 34 4 31 -9 34 -50 13 -24
-13 -28 -13 -28 0 0 15 -7 16 -55 5z"/>
</g>
</svg>
